<?xml version="1.0" encoding="utf-8"?>
<!-- Generator: Adobe Illustrator 26.0.3, SVG Export Plug-In . SVG Version: 6.00 Build 0)  -->
<svg version="1.1" id="Layer_1" xmlns="http://www.w3.org/2000/svg" xmlns:xlink="http://www.w3.org/1999/xlink" x="0px" y="0px"
	 viewBox="0 0 141.7 141.7" style="enable-background:new 0 0 141.7 141.7;" xml:space="preserve">
<style type="text/css">
	.st0{fill:#FFFFFF;}
</style>
<g>
	<path class="st0" d="M59.7,137.5v-83c0-0.3,0-0.6,0-0.9c0-5-2.2-9.5-5.4-12h0c-3.5-2.6-5.5-6.8-5.1-11.2h0V8.9h0V8.9
		c0.3-0.2,0.4-0.6,0.4-1l0,0h0V6.7h0c0-0.4-0.3-0.8-0.7-1V2.8h0l0,0c0-0.7-0.6-1.2-1.2-1.2c0,0,0,0,0,0v0h-9.8v0c0,0,0,0,0,0
		c-0.7,0-1.2,0.6-1.2,1.2l0,0h0v2.9c-0.4,0.2-0.6,0.6-0.7,1h0v1.2h0l0,0c0,0.4,0.2,0.8,0.6,1.1v21.5h0c0.3,4.2-1.4,8.3-4.8,10.9
		c-3.5,2.5-5.8,7-5.8,12.2c0,0.4,0,0.8,0,1.2v82.4c0,0.1,0,0.3,0,0.4c0,1.4,1.1,2.5,2.5,2.5c0,0,0,0,0,0h28.9c1.4,0,2.5-1.1,2.5-2.5
		c0,0,0,0,0,0C59.7,137.6,59.7,137.6,59.7,137.5"/>
	<polygon class="st0" points="115.9,24.4 115.9,31.9 97,31.9 97,50.8 89.5,50.8 89.5,31.9 70.6,31.9 70.6,24.4 89.5,24.4 89.5,5.6 
		97,5.6 97,24.4 	"/>
</g>
</svg>
