<svg viewBox="0 0 141.732 141.732" xml:space="preserve" xmlns="http://www.w3.org/2000/svg"><path d="M63.927 137.498v-82.96c.016-.286.022-.579.022-.864 0-5.035-2.165-9.453-5.43-11.977h.014a12.503 12.503 0 0 1-5.131-11.166h-.01V8.947h-.028v-.051c.272-.23.447-.57.447-.957l-.001-.027h.001V6.701h-.005a1.243 1.243 0 0 0-.666-1.02V2.807h-.002l.001-.027c0-.684-.556-1.243-1.24-1.243-.012 0-.021.004-.029.004v-.004h-9.805v.004c-.012 0-.021-.004-.031-.004-.687 0-1.242.561-1.242 1.242l.002.027h-.002v2.875a1.233 1.233 0 0 0-.666 1.02h-.004v1.211h.001l-.001.027c0 .445.235.836.587 1.056v21.538h-.008a12.505 12.505 0 0 1-4.782 10.904c-3.463 2.463-5.787 7.018-5.787 12.235 0 .398.016.801.042 1.191v82.441c-.021.138-.042.274-.042.416a2.471 2.471 0 0 0 2.472 2.473h28.875a2.471 2.471 0 0 0 2.472-2.473c-.001-.074-.016-.148-.024-.222m47.672-58.899c0-2.729-.351-5.344-.986-7.785H75.258a30.807 30.807 0 0 0-.986 7.785c0 12.582 7.364 22.926 16.799 24.141v33.719h-11.2a1.867 1.867 0 0 0 0 3.734h26.132a1.867 1.867 0 0 0 0-3.734h-11.2V102.74c9.431-1.215 16.796-11.558 16.796-24.141" fill="#ffffff" class="fill-000000"></path></svg>