<?xml version="1.0" encoding="utf-8"?>
<!-- Generator: Adobe Illustrator 26.0.3, SVG Export Plug-In . SVG Version: 6.00 Build 0)  -->
<svg version="1.1" id="Layer_1" xmlns="http://www.w3.org/2000/svg" xmlns:xlink="http://www.w3.org/1999/xlink" x="0px" y="0px"
	 viewBox="0 0 800 800" style="enable-background:new 0 0 800 800;" xml:space="preserve">
<style type="text/css">
	.st0{fill:none;}
	.st1{fill:#FFFFFF;}
</style>
<g>
	<path d="M448.9,210.8V14h-96.7v196.8c-50.5,13.2-88.6,61.2-88.6,118.5v440.4c0,13.8,10.6,24.4,23.1,24.4h227.1
		c12.5,0,23.1-11.2,23.1-24.4V329.3C536.9,272,499.5,224,448.9,210.8z M508.2,633.4H292.3V405.6h215.9V633.4z"/>
	<g>
		<path class="st0" d="M414.1,511.2c0.5,1.7,0,2.7-1.8,3.1c-1.2,0.3-2.4,0.3-3.5,0.5c-1.8,0.2-3.6,0.3-5.4,0.6c-2,0.4-3,2.1-2.5,4
			c0.2,0.8,0.6,1.6,1,2.4c0.9,1.5,1.8,3,2.7,4.6c-1.9,0.2-3.6,0.3-5.4,0.4c-0.9,0.1-1.6,0.3-2.2,0.6c-4.7-10.8-8.9-20.6-12.7-29.3
			c5.8-3.5,12.4-5.3,19.8-5.3c3.9,0,7.4,0.4,10.6,1.1c-0.3,0.6-0.5,1.3-0.9,1.8c-2.7,4.5-2.7,9.2-0.5,13.9
			C413.7,510,414,510.6,414.1,511.2z"/>
		<path d="M375.9,484.4c-3.7,1.8-7.2,4.1-10.5,6.8c-0.7,0.6-1.4,1.1-2,1.7c-7.1-14.8-13.9-28.1-20.5-39.9c-3.1-5.6-7.3-9-12.5-10
			c-2.9-0.6-4.4-1.5-4.4-2.6c0-2.8,1.3-4,3.8-3.7c10.8,1.2,23.5,0.7,38-1.6c2.1-0.4,3.5-0.5,4-0.4c0.4,0.2,0.7,0.5,1,0.9
			c0.3,0.5,0.5,1.3,0.5,2.2c0,1.4-1.5,2.6-4.5,3.7c-5.9,2.2-8.9,4.5-8.9,7c0,1,0.4,2.2,1.1,3.7C364.2,458.6,369.2,469.4,375.9,484.4
			z"/>
		<path d="M389.1,544.6c0.2,1.2,0.7,2.4,1.2,3.6c0.5,1.1,1.2,2.2,1.8,3.4c-0.3,0.1-0.6,0.1-0.9,0.1c-0.3,0-0.5,0.1-0.8,0.1
			c-0.6,0.1-1.2,0.2-1.8,0.3c-2-7.4-7.6-21.2-16.9-41.4c0.6-0.9,1.1-1.6,1.7-2.4c0.5-0.7,1-1.4,1.6-2.1c2.3-2.7,4.8-5,7.4-6.9
			c3.9,8.8,8.1,18.6,12.8,29.5c-0.7,1.2-0.5,2.9,0.8,4.8c1.2,1.7,2.3,3.6,3.5,5.5c-1,0.2-1.9,0.3-2.7,0.5c-2,0.5-4,0.9-5.9,1.6
			C389.4,541.7,388.8,543,389.1,544.6z"/>
		<path d="M429,502.2c-0.3-0.3-0.5-0.6-0.8-0.9c-0.8-1-1.7-1.9-2.5-2.6c-0.5-0.4-1.1-0.8-1.7-1.2c0.2-0.3,0.4-0.6,0.6-0.9
			c0.2,0.2,0.5,0.4,0.7,0.7c0.6,0.7,1.3,1.4,1.8,2.2C427.8,500.2,428.4,501.2,429,502.2z"/>
		<path class="st1" d="M440.3,490.9c-1.8-1.6-4.7-3.2-8.9-4.9c-0.4-0.1-0.7-0.3-1.1-0.4c0.3-0.6,0.6-1.1,0.9-1.6
			C436.9,486.4,439.9,488.7,440.3,490.9z"/>
		<path class="st1" d="M444.4,571.5c-0.4-0.2-0.7-0.4-1.2-0.5c-3-0.8-5,0.2-5.8,2.9c-3,9.1-6.8,15.6-11.5,19.6
			c-4.9,4.2-11.6,6.3-20.1,6.3c-13.1,0-23.9-5.1-32.3-15.4c-0.7-0.9-1.3-1.8-1.9-2.6c-0.3-0.5-0.7-1-1-1.6c0.4,0.5,0.7,1,1.1,1.5
			c8.4,10.3,19.2,15.4,32.3,15.4c8.5,0,15.2-2.1,20.1-6.3c4.7-4,8.5-10.5,11.5-19.6c0.9-2.6,2.8-3.6,5.8-2.9
			C443.3,568.9,444.2,569.9,444.4,571.5z"/>
		<path class="st1" d="M421,480.7c-0.4,0.7-0.7,1.4-1.1,2.1c-5.2-1-11-1.5-17.3-1.5c-8.4,0-16.2,1.7-23.3,4.9
			c-0.7,0.3-1.4,0.7-2.1,1.1c-3.6,1.9-7.1,4.1-10.3,6.9c-0.7,0.6-1.4,1.1-2,1.7c-1.2,1.1-2.3,2.2-3.5,3.3
			c-11.8,12.3-17.7,27.8-17.7,46.4c0,13.2,3,24.7,9,34.4c-7.1-10.3-10.8-22.7-10.8-37.1c0-18.6,5.9-34.1,17.7-46.5
			c1.3-1.3,2.5-2.5,3.8-3.6c0.7-0.6,1.4-1.1,2-1.7c3.3-2.7,6.8-5,10.5-6.8c0.7-0.4,1.4-0.8,2.1-1.1c7-3.1,14.6-4.7,22.9-4.7
			C408.4,478.6,415,479.3,421,480.7z"/>
		<path d="M443,516.5c0,1.7-1.4,2.7-4.1,3.1c-0.9,0.1-1.5,0-2.1-0.2c-0.9-0.3-1.5-1-1.8-2c-0.1-0.3-0.2-0.5-0.2-0.8
			c-1.6-5.8-3.6-10.6-5.8-14.4c-0.6-1-1.2-2-1.9-2.8c-0.6-0.8-1.2-1.5-1.8-2.2c-0.2-0.2-0.4-0.5-0.7-0.7c0,0,0,0,0,0
			c0.1-0.2,0.2-0.3,0.3-0.4c1.5-2.8,2.9-5.6,4.4-8.4c0.4-0.7,0.7-1.4,1.1-2.1c0.4,0.1,0.7,0.3,1.1,0.4c4.2,1.7,7.2,3.3,8.9,4.9
			c1.1,1,1.7,1.9,1.8,2.9c0,0,0,0.1,0,0.1C442.7,498.5,443,506.1,443,516.5z"/>
		<path d="M446.2,575c-0.7,8.2-1.9,14.8-3.5,19.8c-1.1,3.3-5.2,6.2-12.5,8.8c-7.9,2.8-16.9,4.1-27.2,4.1c-16.9,0-31-5.7-42.3-17.2
			c-2.3-2.3-4.2-4.8-6-7.3c-0.7-1-1.4-2.1-2.1-3.1c-6-9.8-9-21.2-9-34.4c0-18.6,5.9-34.1,17.7-46.4c1.1-1.2,2.3-2.3,3.5-3.3
			c0.7-0.6,1.3-1.2,2-1.7c3.3-2.7,6.7-5,10.3-6.9c0.7-0.4,1.4-0.7,2.1-1.1c7.1-3.3,14.9-4.9,23.3-4.9c6.3,0,12.1,0.5,17.3,1.5
			c-0.5,0.9-0.9,1.8-1.4,2.6c-0.7,1.3-1.4,2.7-2.1,4c0,0,0,0.1-0.1,0.1c-0.3,0.6-0.5,1.2-0.7,1.8c-3.8-1.2-8.3-1.9-13.5-1.9
			c-7.2,0-13.6,1.7-19.3,5c-0.7,0.4-1.4,0.9-2,1.3c-2.9,2-5.6,4.4-8,7.3c-0.4,0.5-0.8,1-1.2,1.5c-0.6,0.8-1.2,1.5-1.8,2.3
			c-6.3,9.4-9.4,21.6-9.4,36.5c0,14.1,3,25.9,9,35.5c0.7,1.1,1.3,2.1,2.1,3c0.6,0.9,1.3,1.8,1.9,2.6c8.4,10.3,19.2,15.4,32.3,15.4
			c8.5,0,15.2-2.1,20.1-6.3c4.7-4,8.5-10.5,11.5-19.6c0.9-2.7,2.8-3.6,5.8-2.9c0.5,0.1,0.9,0.3,1.2,0.5c1.2,0.6,1.8,1.7,1.8,3.1
			C446.2,574.8,446.2,574.9,446.2,575z"/>
		<path class="st1" d="M431.7,465.1c-1.4,2.6-2.7,5.2-4.1,7.8c-1.4,2.8-2.9,5.5-4.3,8.3c-0.3,0.7-0.7,1.3-1,2
			c-0.4,0.9-0.9,1.7-1.3,2.5c-0.8,1.5-1.6,3.1-2.4,4.6c0,0.1-0.1,0.1-0.1,0.2c-0.2,0.3-0.3,0.7-0.5,1c0,0.1-0.1,0.2-0.1,0.2
			c0,0.1-0.1,0.2-0.1,0.3c-0.1,0.3-0.2,0.6-0.3,0.9c0,0.1-0.1,0.1-0.1,0.2c-0.1,0.4-0.3,0.8-0.4,1.1c-0.3,0.7-0.6,1.5-1,2.2
			c-2.7,4.5-2.7,9.2-0.5,13.9c0.3,0.6,0.5,1.2,0.7,1.8c0.2,0.7,0.2,1.3,0,1.8c-0.3,0.6-0.8,1-1.8,1.2c-1.1,0.3-2.3,0.3-3.4,0.5H411
			c0,0,0,0,0,0c-0.8,0.1-1.6,0.1-2.3,0.2c-1,0.1-2.1,0.2-3.1,0.4c-1.1,0.2-1.8,0.8-2.2,1.6c0,0,0,0,0,0c-0.3,0.5-0.4,1.1-0.3,1.7
			c0,0.1,0,0.1,0,0.2c0,0.2,0,0.4,0,0.5c0.2,0.8,0.6,1.6,1,2.4c0.2,0.4,0.5,0.9,0.8,1.3c0.5,0.7,0.9,1.5,1.4,2.3c0,0,0,0,0.1,0.1
			c0.2,0.3,0.3,0.5,0.5,0.8c0,0.1,0,0.1,0.1,0.1c0,0.1,0,0.1,0.1,0.1c-0.1,0-0.1,0-0.2,0c-1.8,0.1-3.5,0.3-5.2,0.4
			c-1.6,0.2-2.8,0.6-3.6,1.4c-0.1,0.1-0.2,0.2-0.2,0.3c0,0-0.1,0.1-0.1,0.1c-0.2,0.3-0.4,0.6-0.5,0.9c0,0,0,0,0,0.1
			c-0.1,0.4-0.2,0.9-0.1,1.4c0.1,0.9,0.5,1.8,1.2,2.8c0.2,0.2,0.3,0.5,0.5,0.7c0.8,1.1,1.5,2.3,2.3,3.5c0,0,0,0.1,0.1,0.1
			c0.2,0.3,0.3,0.6,0.5,0.8c0,0,0,0.1,0.1,0.1c0.1,0.1,0.1,0.2,0.2,0.3c-0.1,0-0.2,0-0.3,0c-0.9,0.2-1.7,0.3-2.4,0.5
			c-2,0.5-4,0.9-5.9,1.6c-0.9,0.4-1.5,1-1.7,1.8c0,0,0,0.1,0,0.1c-0.1,0.4-0.2,0.8-0.1,1.2v0.3c0,0.1,0,0.2,0,0.3
			c0.2,1.2,0.7,2.4,1.2,3.6c0.3,0.7,0.7,1.4,1.1,2.2c0,0,0,0,0,0.1c0.1,0.2,0.2,0.3,0.3,0.5c0,0,0,0,0,0c0.1,0.1,0.1,0.2,0.1,0.2
			c0,0,0,0.1,0,0.1c0,0.1,0.1,0.2,0.1,0.3c0,0,0,0,0,0c0,0,0,0.1,0,0.1c-0.6,0.1-1.1,0.1-1.6,0.2c-0.3,0.1-0.5,0.1-0.8,0.1
			c-0.1,0-0.2,0-0.3,0c-0.9,0.1-1.7,0.3-2.6,0.5c-0.2,0.1-0.5,0.1-0.7,0.2c-0.8,0.2-1.4,0.7-1.8,1.4c0,0-0.1,0.1-0.1,0.1
			c-0.3,0.7-0.5,1.4-0.2,2.1c0.3,0.7,0.6,1.3,0.9,1.9c0.2,0.9,0.4,1.9,0.6,2.8c-1.5-1.8-2.9-3.5-3.6-5.7c-0.5-1.5,0.4-3.1,2-3.6
			c0.8-0.2,1.6-0.4,2.5-0.5c0.6-0.1,1.2-0.2,1.8-0.3c0.3,0,0.5-0.1,0.8-0.1c0.3,0,0.6-0.1,0.9-0.1c-0.7-1.2-1.3-2.3-1.8-3.4
			c-0.5-1.2-1-2.3-1.2-3.6c-0.3-1.6,0.3-2.9,1.9-3.5c1.9-0.7,3.9-1.1,5.9-1.6c0.8-0.2,1.7-0.3,2.7-0.5c-1.2-1.9-2.3-3.7-3.5-5.5
			c-1.4-1.9-1.5-3.6-0.8-4.8c0.4-0.7,1.1-1.2,1.9-1.6c0.7-0.3,1.4-0.5,2.2-0.6c1.8-0.2,3.5-0.3,5.4-0.4c-0.9-1.6-1.9-3.1-2.7-4.6
			c-0.4-0.7-0.8-1.5-1-2.4c-0.5-2,0.5-3.6,2.5-4c1.8-0.3,3.6-0.4,5.4-0.6c1.2-0.1,2.4-0.2,3.5-0.5c1.7-0.4,2.3-1.4,1.8-3.1
			c-0.2-0.6-0.4-1.2-0.7-1.8c-2.2-4.7-2.2-9.4,0.5-13.9c0.4-0.6,0.6-1.2,0.9-1.8c0.3-0.8,0.6-1.6,0.8-2.4c0.2-0.6,0.5-1.2,0.7-1.8
			c0,0,0.1-0.1,0.1-0.1c0.7-1.4,1.4-2.7,2.1-4c0.5-0.9,0.9-1.8,1.4-2.6c0.4-0.7,0.7-1.4,1.1-2.1c1.5-2.9,3-5.8,4.5-8.6
			c1.5-2.8,2.9-5.7,4.4-8.4c0.3,0.3,0.7,0.6,1,0.8c0,0,0.1,0.1,0.1,0.1C431.2,464.7,431.4,464.9,431.7,465.1z"/>
		<path class="st1" d="M417.1,433.5c-1.8-0.4-3.7,0-5.4,1.3c-3.1,2.4-4.8,5.5-4.9,9.4c-0.1,1.9,0.6,3.5,1.7,4.7
			c0.1,0.2,0.1,0.5,0.2,0.7c-2.6-1.1-4.1-3.3-4-6.3c0.1-3.9,1.7-7.1,4.9-9.4C412,432,414.7,432,417.1,433.5z"/>
		<path d="M473.1,466.3c0,4.1-1.7,7.4-5,9.8c0,0-0.1,0-0.1,0c-2.2,1.5-4.7,1.6-6.8,0.5c-0.1-0.1-0.2-0.1-0.2-0.2c0,0,0-0.1,0-0.1
			c-0.1,0-0.2,0-0.3-0.1c-0.3-0.2-0.7-0.5-1-0.7c-0.3-0.3-0.7-0.6-1-0.9c-0.4-0.5-0.8-0.9-1.3-1.3c-1.4-1.2-2.9-2.1-4.6-2.7
			c-0.9-0.3-1.8-0.6-2.8-0.8c-1.9-0.4-4.5-1.1-6.8-1.7c-3-0.9-5.7-1.6-5.8-1.7c-0.2,0.4-0.4,0.8-0.6,1.2c-0.1,0.2-0.2,0.3-0.3,0.5
			c0,0.1-0.1,0.1-0.1,0.2c-2.5,4.9-5.1,9.8-7.6,14.7c-0.3,0.6-0.6,1.1-0.9,1.7c-0.4,0.8-0.8,1.5-1.2,2.3c-1.2,2.3-2.4,4.5-3.5,6.8
			c0,0.1-0.1,0.2-0.2,0.2c-0.2,0.3-0.3,0.5-0.5,0.7c-0.2,0.2-0.4,0.5-0.6,0.7c-0.1,0-0.1,0.1-0.2,0.2c-0.1,0.1-0.2,0.2-0.3,0.3
			c-0.2,0.2-0.3,0.4-0.5,0.6c0,0.1-0.1,0.1-0.1,0.2c-0.3,0.4-0.5,0.8-0.7,1.3c-0.5,1.2-1,2.4-1.5,3.6c-0.6,1.7-0.6,3.4-0.2,5.1
			c0.1,0.2,0.2,0.4,0.2,0.7c0.1,0.2,0.1,0.4,0.2,0.6c0.6,1.3,1,2.6,1.3,4c0.1,0.4,0.1,0.8,0.1,1.2c0,0.3,0,0.5,0,0.7
			c-0.2,1.5-0.9,2.8-2.1,3.6c-0.1,0-0.2,0.1-0.2,0.1c-0.5,0.3-1.1,0.6-1.7,0.7c-1.8,0.5-3.7,0.5-5.5,0.7c-0.9,0.1-1.8,0.2-2.6,0.3
			c-0.5,0.1-0.8,0.3-1,0.5c0,0-0.1,0.1-0.1,0.1c-0.2,0.3-0.2,0.8,0.1,1.3c0,0,0,0.1,0,0.1l0,0c0.3,0.7,0.8,1.3,1.2,1.9
			c0,0,0,0.1,0.1,0.1c0.8,1.3,1.7,2.4,2.4,3.7c0.2,0.4,0.4,0.8,0.4,1.1c0.3,1.3-0.5,2.2-2.2,2.4c-1.9,0.2-3.8,0.2-5.7,0.3
			c-1.8,0.1-2.5,0.3-2.5,1.1c0,0,0,0,0,0.1c0,0.3,0.1,0.6,0.3,1c0,0,0,0.1,0,0.1c0.1,0.3,0.3,0.6,0.5,1c0.3,0.6,0.6,1.2,1,1.7
			c0.5,0.9,1,1.8,1.4,2.7c0.1,0.2,0.2,0.3,0.2,0.4c0,0.1,0.1,0.2,0.1,0.2c0,0.1,0.1,0.2,0.1,0.2c0.5,1.1,0.6,1.9,0.3,2.5
			c0,0.1-0.1,0.2-0.2,0.3c-0.2,0.2-0.5,0.4-0.8,0.6c-0.1,0.1-0.2,0.1-0.2,0.1c-0.3,0.1-0.5,0.2-0.8,0.3c-1.8,0.6-3.7,1-5.5,1.5
			c-1,0.3-2.1,0.5-3.3,0.8c0.1,0.3,0.2,0.5,0.3,0.8c0,0,0,0,0,0.1c0.2,0.5,0.5,1,0.7,1.4v0c0.4,0.8,0.7,1.5,1.1,2.3
			c0.2,0.5,0.5,0.9,0.7,1.4c0.5,1.1,0.6,1.9,0.3,2.6c-0.1,0.1-0.1,0.2-0.2,0.3c-0.2,0.4-0.5,0.7-0.9,0.9c-0.1,0.1-0.2,0.1-0.2,0.2
			c-0.1,0.1-0.3,0.1-0.4,0.2c-0.1,0.1-0.2,0.1-0.3,0.2h-0.1c-1,0.4-2,0.5-3.1,0.7c-0.8,0.2-1.7,0.2-2.6,0.3c-0.3,0.1-0.6,0.1-1,0.1
			c0,0.1,0,0.3,0.1,0.4c0.1,0.4,0.1,0.7,0.2,1c0,0,0,0,0,0.1c0.1,0.3,0.1,0.6,0.2,0.9c0,0,0,0.1,0,0.1c0,0.2,0.1,0.4,0.1,0.7
			c0.2,1,0.4,1.9,0.6,2.9l0.1,0.4c-0.1-0.1-0.2-0.2-0.3-0.3c-0.2-0.3-0.5-0.6-0.7-0.9c-0.4-0.5-0.8-1-1.1-1.5
			c-0.2-0.3-0.4-0.7-0.6-1c-0.4-0.6-0.7-1.3-0.9-1.9c-0.3-0.7-0.1-1.5,0.2-2.1c0,0,0.1-0.1,0.1-0.1c0.4-0.6,1-1.2,1.8-1.4
			c0.2-0.1,0.5-0.1,0.7-0.2c0.9-0.2,1.7-0.3,2.6-0.5c0.1,0,0.2,0,0.3,0c0.3,0,0.5-0.1,0.8-0.1c0.5-0.1,1-0.1,1.6-0.2
			c0,0,0-0.1,0-0.1c0,0,0,0,0,0c0-0.1-0.1-0.2-0.1-0.3c0,0,0-0.1,0-0.1c0-0.1-0.1-0.1-0.1-0.2c0,0,0,0,0,0c-0.1-0.2-0.2-0.4-0.3-0.5
			c0,0,0-0.1,0-0.1c-0.4-0.7-0.8-1.4-1.1-2.2c-0.5-1.2-1-2.3-1.2-3.6c0-0.1,0-0.2,0-0.3v-0.3c0-0.4,0-0.8,0.1-1.2c0,0,0,0,0-0.1
			c0.3-0.8,0.8-1.4,1.7-1.8c1.9-0.7,3.9-1.1,5.9-1.6c0.8-0.2,1.5-0.3,2.4-0.5c0.1,0,0.2,0,0.3,0c-0.1-0.1-0.1-0.2-0.2-0.3
			c0,0,0-0.1-0.1-0.1c-0.2-0.3-0.3-0.5-0.5-0.8c0,0,0,0-0.1-0.1c-0.8-1.2-1.5-2.4-2.3-3.5c-0.2-0.2-0.3-0.5-0.5-0.7
			c-0.7-1-1.1-2-1.2-2.8c0-0.5,0-1,0.1-1.4c0,0,0-0.1,0-0.1c0.1-0.3,0.3-0.6,0.5-0.9c0,0,0-0.1,0.1-0.1c0.1-0.1,0.1-0.2,0.2-0.3
			c0.8-0.8,2-1.3,3.6-1.4c1.7-0.2,3.4-0.3,5.2-0.4c0.1,0,0.1,0,0.2,0c0,0-0.1-0.1-0.1-0.1c0-0.1,0-0.1-0.1-0.1
			c-0.2-0.3-0.3-0.5-0.5-0.8c0,0,0,0-0.1-0.1c-0.5-0.8-0.9-1.5-1.4-2.3c-0.3-0.4-0.5-0.9-0.8-1.3c-0.4-0.8-0.8-1.5-1-2.4
			c-0.1-0.2,0-0.4,0-0.5c0-0.1,0-0.2,0-0.2c0-0.6,0.1-1.2,0.3-1.7c0,0,0,0,0,0c0.4-0.8,1.2-1.4,2.2-1.6c1-0.2,2-0.3,3.1-0.4
			c0.8-0.1,1.6-0.1,2.3-0.2c0,0,0,0,0,0h0.1c1.2-0.1,2.3-0.2,3.4-0.5c1-0.2,1.5-0.6,1.8-1.2c0.2-0.5,0.2-1.1,0-1.8
			c-0.2-0.6-0.4-1.2-0.7-1.8c-2.2-4.7-2.2-9.4,0.5-13.9c0.4-0.7,0.7-1.5,1-2.2c0.1-0.4,0.3-0.8,0.4-1.1c0-0.1,0.1-0.1,0.1-0.2
			c0.1-0.3,0.2-0.6,0.3-0.9c0-0.1,0.1-0.2,0.1-0.3c0.1-0.1,0.1-0.2,0.1-0.2c0.1-0.3,0.3-0.7,0.5-1c0-0.1,0-0.2,0.1-0.2
			c0.8-1.5,1.6-3.1,2.4-4.6c0.4-0.9,0.9-1.7,1.3-2.5c0.4-0.7,0.7-1.3,1-2c1.5-2.8,2.9-5.5,4.3-8.3c1.4-2.6,2.7-5.3,4.1-7.8
			c0.2-0.3,0.3-0.6,0.5-0.9c0,0,0.1-0.1,0.1-0.2c0,0,0,0,0,0c-2.7-2.2-5.3-4.2-7.8-6.4c-1.2-1-2.3-2.2-3.5-3.2c0,0,0,0-0.1-0.1
			c-0.1,0-0.1-0.1-0.2-0.1c-1.3-1.2-2.7-2-4.3-2.5c-0.7-0.2-1.4-0.4-2.1-0.5c-0.7-0.1-1.5-0.2-2.2-0.4c-0.1,0-0.1,0-0.2,0
			c-0.9-0.2-1.7-0.6-2.4-1c-0.4-0.3-0.8-0.6-1.2-1c-1.1-1.2-1.7-2.8-1.7-4.7c0.1-3.9,1.7-7.1,4.9-9.4c1.7-1.3,3.6-1.7,5.4-1.3
			c1.1,0.3,2.1,0.8,3.1,1.6c0.5,0.4,1,0.9,1.4,1.4c1,1.1,2.1,2,3.3,2.7c1.3,0.7,2.6,1.2,4.1,1.5c3.6,0.8,7.2,1.6,10.7,2.7
			c0.7,0.2,1.5,0.5,2.2,0.8c5.1,2,9.6,5.2,13.6,9c1.1,1.1,2.2,2.1,3.3,3.1c0.8,0.8,1.7,1.4,2.6,1.9c1.3,0.7,2.8,1.2,4.4,1.5
			c0.8,0.1,1.5,0.3,2.2,0.5c0.4,0.1,0.8,0.2,1.2,0.4c2.1,0.9,3.3,2.4,3.7,4.4C473,465.2,473.1,465.7,473.1,466.3z"/>
	</g>
</g>
</svg>
