<svg xmlns="http://www.w3.org/2000/svg" viewBox="0 0 273.31 780"><g id="Layer_2" data-name="Layer 2"><g id="Layer_1-2" data-name="Layer 1"><path d="M185.33,196.81V0H88.61V196.81C38.06,210,0,258,0,315.29V755.65C0,769.47,10.61,780,23.09,780H250.22c12.48,0,23.09-11.19,23.09-24.35V315.29C273.31,258,235.87,210,185.33,196.81ZM244.6,619.39H28.7V391.65H244.6Z"/><path d="M112.28,470.4a54.43,54.43,0,0,0-10.46,6.8c-.67.55-1.35,1.08-2,1.68Q89.18,456.74,79.28,439q-4.62-8.42-12.54-10c-2.9-.57-4.35-1.45-4.35-2.58q0-4.12,3.83-3.67,16.25,1.8,38-1.6a15,15,0,0,1,4-.38,2,2,0,0,1,1,.85,4.82,4.82,0,0,1,.45,2.2c0,1.38-1.53,2.6-4.53,3.68q-8.89,3.3-8.89,7A8.63,8.63,0,0,0,97.29,438Q102.29,447.88,112.28,470.4Z"/><path d="M125.47,530.6a16.15,16.15,0,0,0,1.2,3.55c.5,1.13,1.15,2.18,1.8,3.38-.32.05-.62.08-.9.1a7.4,7.4,0,0,1-.77.1c-.61.1-1.21.2-1.81.28q-3-11.09-16.89-41.36c.55-.86,1.13-1.63,1.73-2.43s1-1.4,1.55-2.08a40.91,40.91,0,0,1,7.43-6.88q5.79,13.17,12.76,29.48c-.7,1.2-.52,2.87.83,4.8,1.2,1.73,2.28,3.55,3.5,5.45-1,.18-1.87.28-2.7.48a57.88,57.88,0,0,0-5.88,1.6A2.9,2.9,0,0,0,125.47,530.6Z"/><path d="M179.44,502.5c0,1.73-1.38,2.73-4.13,3.05a4.33,4.33,0,0,1-2.1-.22,2.84,2.84,0,0,1-1.78-2c-.07-.25-.15-.48-.22-.75a60.84,60.84,0,0,0-5.81-14.39,30.19,30.19,0,0,0-1.85-2.8,19.09,19.09,0,0,0-1.82-2.18,6.75,6.75,0,0,0-.66-.65v0a3.09,3.09,0,0,0,.25-.42c1.46-2.8,2.91-5.61,4.36-8.38l1.07-2.11,1.06.38c4.22,1.7,7.18,3.33,8.93,4.88a4.71,4.71,0,0,1,1.8,2.85.2.2,0,0,1,0,.1A206.28,206.28,0,0,1,179.44,502.5Z"/><path d="M182.59,561a92.16,92.16,0,0,1-3.47,19.81q-1.62,4.89-12.47,8.76a82.06,82.06,0,0,1-27.17,4.13q-25.36,0-42.29-17.22a60.32,60.32,0,0,1-6-7.33c-.72-1-1.42-2-2.1-3.12q-9-14.64-9-34.43,0-27.93,17.71-46.44c1.13-1.18,2.28-2.26,3.45-3.33.65-.6,1.33-1.18,2-1.73a56.08,56.08,0,0,1,10.33-6.85c.7-.36,1.4-.73,2.13-1.06A55.5,55.5,0,0,1,139,467.3a94.57,94.57,0,0,1,17.29,1.47c-.48.88-.93,1.75-1.38,2.63-.7,1.32-1.38,2.68-2.1,4a.31.31,0,0,1,0,.1c-.28.57-.5,1.15-.73,1.75a43.79,43.79,0,0,0-13.51-1.88,37.37,37.37,0,0,0-19.27,5c-.67.4-1.35.85-2,1.3a38.48,38.48,0,0,0-8,7.28c-.43.48-.78,1-1.16,1.53-.6.78-1.2,1.53-1.75,2.33q-9.37,14.12-9.41,36.5c0,14.09,3,25.88,9,35.46.65,1.05,1.33,2.05,2,3s1.26,1.77,1.93,2.62q12.62,15.39,32.28,15.39c8.51,0,15.24-2.1,20.14-6.28q7-6,11.49-19.62c.85-2.65,2.8-3.6,5.8-2.85a4.93,4.93,0,0,1,1.2.45,3.28,3.28,0,0,1,1.78,3.08A2.07,2.07,0,0,1,182.59,561Z"/><path d="M209.47,452.28a11.71,11.71,0,0,1-5,9.81s-.05,0-.1.05a6.28,6.28,0,0,1-6.83.45l-.2-.17-.05-.05c-.08,0-.18,0-.25-.05a6.41,6.41,0,0,1-1-.73,7.57,7.57,0,0,1-1-.93,14.74,14.74,0,0,0-1.25-1.25,13.65,13.65,0,0,0-4.6-2.7,21,21,0,0,0-2.8-.8c-1.85-.37-4.48-1.05-6.83-1.7-3-.85-5.66-1.63-5.81-1.73-.2.4-.4.78-.6,1.15a3.33,3.33,0,0,1-.25.5.92.92,0,0,1-.1.2c-2.53,4.91-5.1,9.81-7.63,14.72-.3.55-.6,1.12-.9,1.7-.4.75-.78,1.5-1.18,2.25l-3.53,6.81-.15.22c-.15.25-.3.48-.47.73l-.58.72a1,1,0,0,0-.15.18c-.07.1-.17.22-.25.32a6.07,6.07,0,0,0-.47.63,1,1,0,0,1-.13.17,4.79,4.79,0,0,0-.65,1.25c-.45,1.23-1,2.38-1.48,3.61a8.31,8.31,0,0,0-.15,5.05l.23.65c.07.2.1.38.18.58a21.23,21.23,0,0,1,1.3,4,9.83,9.83,0,0,1,.12,1.18,4.47,4.47,0,0,1-.05.67,4.72,4.72,0,0,1-2.08,3.58l-.22.13a6.55,6.55,0,0,1-1.68.72,44.92,44.92,0,0,1-5.5.73c-.88.12-1.78.15-2.63.32a1.61,1.61,0,0,0-1,.5s-.1.05-.12.1a1.39,1.39,0,0,0,.12,1.33s0,.05,0,.07l0,0a14.25,14.25,0,0,0,1.17,1.9s0,.05.05.08c.8,1.25,1.73,2.42,2.43,3.7a3.84,3.84,0,0,1,.42,1.13c.28,1.3-.47,2.17-2.17,2.35-1.88.22-3.78.2-5.66.25s-2.53.3-2.53,1.1c0,0,0,0,0,.05a2.7,2.7,0,0,0,.27,1s0,.05,0,.05a5.4,5.4,0,0,0,.45,1c.3.57.63,1.15,1,1.72.5.88.95,1.78,1.4,2.68l.23.42a.85.85,0,0,1,.12.23,2.14,2.14,0,0,1,.1.22,2.8,2.8,0,0,1,.28,2.48c-.05.08-.13.18-.18.25a2.64,2.64,0,0,1-.77.6l-.23.13a7,7,0,0,1-.82.32c-1.81.58-3.66,1-5.48,1.48-1,.27-2.08.5-3.33.77.12.28.22.51.32.76,0,0,0,0,0,0,.22.47.45,1,.65,1.4v0c.37.78.7,1.53,1,2.25.2.45.48.9.68,1.38a3.48,3.48,0,0,1,.32,2.6c0,.1-.12.2-.17.3a2.44,2.44,0,0,1-.93.9l-.22.15a2.58,2.58,0,0,1-.38.18l-.28.15h-.07a14.18,14.18,0,0,1-3.05.67,25.72,25.72,0,0,1-2.63.3c-.33,0-.63.08-1,.1,0,.13.05.25.08.35.07.36.12.68.2,1v0c.07.27.12.57.17.85,0,0,0,.07,0,.1a4.66,4.66,0,0,1,.12.65c.2.95.4,1.9.6,2.87l.08.38a3.22,3.22,0,0,1-.28-.33c-.22-.3-.47-.6-.72-.9-.38-.47-.75-1-1.1-1.47-.23-.33-.4-.65-.6-1a12.28,12.28,0,0,1-.93-1.93,2.7,2.7,0,0,1,.2-2.1s0-.08.08-.1a2.81,2.81,0,0,1,1.75-1.35,5.37,5.37,0,0,1,.67-.15q1.27-.27,2.58-.45c.08,0,.15,0,.25,0,.25,0,.5-.07.75-.12.48-.08,1-.13,1.55-.18a.11.11,0,0,0,.05-.1v0a1.13,1.13,0,0,1-.12-.25s0-.05,0-.08a1.17,1.17,0,0,1-.12-.2.07.07,0,0,1,0-.05c-.1-.17-.2-.35-.27-.5a.06.06,0,0,1,0,0,23.31,23.31,0,0,1-1.12-2.15,16.33,16.33,0,0,1-1.2-3.55c0-.13,0-.23,0-.33V531a3.6,3.6,0,0,1,.13-1.15.12.12,0,0,0,0,0,2.71,2.71,0,0,1,1.73-1.75,57.88,57.88,0,0,1,5.88-1.6c.75-.2,1.52-.3,2.42-.45.1,0,.18,0,.28,0l-.2-.32a.35.35,0,0,1-.05-.08c-.18-.25-.33-.53-.5-.8,0,0,0,0-.05-.05-.75-1.2-1.5-2.38-2.25-3.5-.15-.23-.3-.48-.45-.7a6.09,6.09,0,0,1-1.18-2.81,4.07,4.07,0,0,1,.1-1.37.09.09,0,0,0,0-.08,3.08,3.08,0,0,1,.5-.9.12.12,0,0,1,.05-.1c.07-.07.12-.2.22-.27a5.78,5.78,0,0,1,3.58-1.41c1.7-.15,3.43-.27,5.23-.4a.5.5,0,0,1,.17,0c0-.05,0-.08-.07-.13a.61.61,0,0,1,0-.12l-.45-.75,0-.05q-.68-1.17-1.35-2.25c-.25-.43-.53-.85-.75-1.28a9.89,9.89,0,0,1-1-2.35,1.89,1.89,0,0,1,0-.53.75.75,0,0,1,0-.2,3,3,0,0,1,.3-1.65v0a3,3,0,0,1,2.22-1.6,30.79,30.79,0,0,1,3.06-.36c.75-.07,1.55-.12,2.3-.2h.15a29.49,29.49,0,0,0,3.43-.45,2.19,2.19,0,0,0,1.75-1.22,2.71,2.71,0,0,0,0-1.83,11.53,11.53,0,0,0-.68-1.77c-2.17-4.73-2.22-9.44.48-13.94a13.74,13.74,0,0,0,1-2.18c.12-.37.27-.75.4-1.12,0-.08,0-.13.07-.2.1-.31.18-.58.28-.86a1.48,1.48,0,0,0,.1-.27,1.15,1.15,0,0,0,.1-.23,7.93,7.93,0,0,1,.45-1c0-.07,0-.15.07-.2.83-1.52,1.61-3.07,2.41-4.6.42-.85.87-1.68,1.3-2.53.35-.65.7-1.32,1-2L164,459c1.37-2.62,2.72-5.28,4.08-7.83l.45-.9c0-.05.07-.12.1-.2a0,0,0,0,0,0,0c-2.65-2.16-5.25-4.23-7.78-6.36-1.23-1-2.33-2.15-3.48-3.23l-.05-.05a.53.53,0,0,1-.15-.12,11.57,11.57,0,0,0-6.35-2.93c-.73-.1-1.46-.23-2.18-.38a1,1,0,0,0-.18-.05,7.66,7.66,0,0,1-2.37-1,7.09,7.09,0,0,1-1.18-1,6.5,6.5,0,0,1-1.68-4.7,11.59,11.59,0,0,1,4.86-9.43,6.37,6.37,0,0,1,5.38-1.26,7.21,7.21,0,0,1,3.08,1.63,12.35,12.35,0,0,1,1.42,1.38,12.17,12.17,0,0,0,3.33,2.65,16.12,16.12,0,0,0,4.1,1.48c3.58.8,7.18,1.55,10.66,2.67.73.23,1.45.48,2.15.75a43.16,43.16,0,0,1,13.59,9c1.1,1.05,2.23,2.08,3.33,3.13a13.4,13.4,0,0,0,7,3.3,16.47,16.47,0,0,1,2.22.45,9.37,9.37,0,0,1,1.2.4,5.86,5.86,0,0,1,3.71,4.36A7.93,7.93,0,0,1,209.47,452.28Z"/></g></g></svg>