<?xml version="1.0" ?><!DOCTYPE svg  PUBLIC '-//W3C//DTD SVG 1.1//EN'  'http://www.w3.org/Graphics/SVG/1.1/DTD/svg11.dtd'><svg enable-background="new 0 0 50 50" height="50px" version="1.1" viewBox="0 0 50 50" width="50px" xml:space="preserve" xmlns="http://www.w3.org/2000/svg" xmlns:xlink="http://www.w3.org/1999/xlink"><g id="Layer_13"/><g id="Layer_12"/><g id="Layer_11"/><g id="Layer_10"/><g id="Layer_9"/><g id="Layer_8"><path clip-rule="evenodd" d="M10.85,21.62l-0.008,0.077l-0.004,0.035l-0.002,0.017l-0.002,0.017l-0.002,0.018   l-0.003,0.017l-0.003,0.017l-0.009,0.054l-0.002,0.014l-0.004,0.022l-0.007,0.035l-0.002,0.011l-0.011,0.051l-0.002,0.009   l-0.005,0.024l-0.003,0.01l-0.001,0.007l-0.004,0.016l-0.013,0.05l-0.005,0.016l-0.004,0.017l-0.015,0.049l-0.006,0.017   l-0.005,0.015l-0.006,0.018l-0.004,0.014l-0.007,0.02L10.706,22.3l-0.011,0.032l-0.008,0.022l-0.012,0.033l-0.003,0.008   l-0.006,0.016l-0.003,0.008l-0.002,0.007l-0.007,0.016c-0.146,0.363-0.364,0.687-0.636,0.959c-0.522,0.522-1.243,0.845-2.04,0.845   c-0.796,0-1.517-0.323-2.039-0.845c-0.521-0.522-0.844-1.243-0.844-2.039c0-0.796,0.323-1.517,0.844-2.039   c0.522-0.522,1.242-0.845,2.039-0.845c0.797,0,1.518,0.323,2.04,0.845c0.323,0.324,0.571,0.723,0.712,1.169l0.004,0.013   l0.004,0.014l0.08,0.333l0.011,0.064l0.001,0.007l0.008,0.05l0.002,0.014l0.002,0.014l0.009,0.086l0.001,0.017l0.002,0.012   l0.001,0.014l0.002,0.014l0.001,0.015l0.004,0.058l0.003,0.102v0.007v0.037V21.4v0.017l-0.003,0.095l-0.004,0.064l-0.001,0.01   l-0.002,0.026L10.85,21.62z M19.24,21.647c0,0.796-0.323,1.517-0.842,2.042c-0.52,0.52-1.243,0.841-2.042,0.841   c-0.796,0-1.517-0.322-2.039-0.844c-0.522-0.521-0.845-1.243-0.845-2.039c0-0.797,0.323-1.518,0.845-2.04   c0.521-0.521,1.242-0.844,2.039-0.844c0.796,0,1.517,0.323,2.039,0.845C18.917,20.129,19.24,20.85,19.24,21.647z M14.83,28.962   c0,0.796-0.323,1.518-0.844,2.039c-0.522,0.522-1.244,0.845-2.04,0.845c-0.796,0-1.517-0.323-2.039-0.845   c-0.522-0.521-0.845-1.242-0.845-2.039c0-0.799,0.323-1.521,0.845-2.039c0.522-0.522,1.243-0.845,2.039-0.845   c0.796,0,1.517,0.323,2.04,0.845C14.507,27.444,14.83,28.166,14.83,28.962z M22.497,31.223c-0.522,0.521-1.243,0.844-2.04,0.844   c-0.797,0-1.52-0.322-2.042-0.841c-0.519-0.521-0.841-1.244-0.841-2.042c0-0.796,0.323-1.518,0.844-2.039   c0.522-0.522,1.244-0.845,2.039-0.845c0.542,0,1.05,0.149,1.483,0.409l0.02,0.012l0.053,0.033l0.029,0.019   c0.165,0.108,0.317,0.233,0.456,0.371c0.522,0.522,0.845,1.244,0.845,2.04C23.343,29.98,23.019,30.701,22.497,31.223z    M18.902,36.701l0,0.092c-0.073,0.671-0.374,1.274-0.827,1.726c-0.521,0.522-1.242,0.845-2.039,0.845   c-0.797,0-1.518-0.323-2.039-0.845c-0.521-0.521-0.845-1.242-0.845-2.039c0-0.797,0.323-1.518,0.845-2.04   c0.521-0.522,1.243-0.845,2.039-0.845c0.796,0,1.517,0.323,2.039,0.845c0.485,0.485,0.799,1.143,0.839,1.873L18.902,36.701z    M22.257,42.203c0.522,0.522,0.845,1.243,0.845,2.039c0,0.797-0.323,1.518-0.845,2.04c-0.522,0.521-1.243,0.844-2.04,0.844   c-0.796,0-1.518-0.323-2.039-0.844c-0.521-0.522-0.844-1.243-0.844-2.04c0-0.798,0.322-1.52,0.844-2.039   c0.522-0.521,1.243-0.844,2.039-0.844C21.014,41.359,21.735,41.681,22.257,42.203z M28.984,19.343   c-1.315-2.152-2.12-4.077-2.257-5.702c-0.132-1.573,0.429-2.889,1.867-3.872l0.667-0.456l-0.044-0.801   c-0.095-1.752,0.604-3,1.926-3.848c1.369-0.878,3.382-1.405,5.883-1.661l-0.028,0.145l-0.291,1.206l1.149,0.461   c0.748,0.3,1.445,0.754,2.102,1.316c0.569,0.486,1.105,1.047,1.62,1.656c-0.059,0.098-0.161,0.207-0.307,0.327L40.166,9.03   l0.916,1.105c1.066,1.287,1.948,2.581,2.587,3.881c0.478,0.973,0.829,1.961,1.028,2.964c-0.911,0.448-1.902,0.768-2.96,0.976   c-1.441,0.284-3,0.369-4.648,0.302l-1.435-0.06l-0.051,1.44c-0.007,0.183-0.031,0.329-0.07,0.436   c-0.791-0.041-1.559-0.129-2.289-0.287c-0.85-0.184-1.633-0.464-2.319-0.874l-1.068-0.64l-0.784,0.971L28.984,19.343z    M30.699,22.94c0.056-0.295,0.091-0.597,0.1-0.906c0.59,0.238,1.205,0.421,1.837,0.557c1.072,0.232,2.219,0.337,3.408,0.365   l0.179,0.005c-0.14,0.458-0.39,0.866-0.72,1.196c-0.521,0.521-1.242,0.844-2.039,0.844c-0.796,0-1.517-0.323-2.039-0.844   C31.09,23.823,30.837,23.406,30.699,22.94z M29.191,32.288c-0.797,0-1.517-0.323-2.039-0.844c-0.521-0.521-0.844-1.243-0.844-2.04   c0-0.796,0.323-1.517,0.844-2.039c0.111-0.111,0.23-0.212,0.357-0.303c0.21-0.1,0.413-0.212,0.609-0.335   c0.332-0.133,0.694-0.206,1.074-0.206c0.797,0,1.518,0.322,2.039,0.844c0.522,0.522,0.844,1.243,0.844,2.039   c0,0.797-0.322,1.518-0.844,2.04C30.709,31.965,29.988,32.288,29.191,32.288z M24.322,16.146c-1.233,0.154-2.344,0.697-3.206,1.503   c-0.874-1.775-1.611-2.861-2.252-3.802c-0.299-0.439-0.574-0.844-0.83-1.288c1.068-0.925,2.44-1.637,3.88-2.107   c0.912-0.297,1.841-0.494,2.729-0.586c-0.66,1.184-0.902,2.528-0.777,4.01C23.927,14.604,24.081,15.361,24.322,16.146z    M25.043,24.742c-0.547,0-1.059-0.153-1.495-0.418l-0.03-0.019l-0.016-0.01l-0.018-0.011c-0.174-0.112-0.335-0.242-0.48-0.387   c-0.521-0.521-0.844-1.242-0.844-2.039c0-0.797,0.323-1.518,0.844-2.039c0.522-0.522,1.243-0.845,2.039-0.845   c0.159,0,0.314,0.013,0.466,0.037c0.462,0.907,1.012,1.842,1.642,2.801l0.404,0.616l0.161,0.006l0.038,0.415   c-0.145,0.397-0.376,0.754-0.67,1.047C26.561,24.419,25.84,24.742,25.043,24.742z M24.659,39.585c-0.798,0-1.521-0.322-2.042-0.842   c-0.483-0.484-0.795-1.144-0.837-1.875l0.013-0.389l-0.001-0.094c0.073-0.671,0.375-1.272,0.828-1.724   c0.521-0.522,1.243-0.845,2.039-0.845c0.796,0,1.518,0.323,2.039,0.845c0.522,0.521,0.845,1.243,0.845,2.039   c0,0.796-0.323,1.518-0.845,2.039C26.176,39.262,25.455,39.585,24.659,39.585z M20.217,50c1.59,0,3.029-0.646,4.071-1.687   c1.042-1.041,1.686-2.481,1.686-4.07c0-0.655-0.111-1.285-0.312-1.872c1.187-0.208,2.249-0.782,3.066-1.599   c1.042-1.042,1.687-2.481,1.687-4.071c0-0.564-0.081-1.11-0.233-1.625c1.192-0.207,2.258-0.781,3.079-1.601   c1.041-1.042,1.686-2.482,1.686-4.071c0-0.579-0.085-1.137-0.244-1.664c1.092-0.239,2.068-0.789,2.831-1.552   c1.042-1.042,1.686-2.481,1.686-4.071c0-0.338-0.029-0.67-0.085-0.992c1.093-0.042,2.144-0.156,3.15-0.354   c1.714-0.338,3.3-0.917,4.727-1.794l0.765-0.471l-0.092-0.899c-0.172-1.666-0.676-3.28-1.447-4.85   c-0.591-1.202-1.332-2.369-2.195-3.506l0.184-0.351c0.255-0.563,0.331-1.148,0.253-1.745L44.43,6.764l-0.252-0.315   c-0.743-0.929-1.521-1.78-2.356-2.494c-0.602-0.515-1.24-0.968-1.92-1.337l-0.047-0.404c-0.1-0.568-0.341-1.118-0.773-1.64   L38.608,0l-0.728,0.051c-3.458,0.243-6.297,0.924-8.287,2.2c-1.764,1.132-2.867,2.673-3.169,4.713   c-1.693-0.092-3.592,0.173-5.397,0.761c-1.463,0.477-2.883,1.171-4.107,2.065c-0.157-0.572-0.309-1.233-0.458-2.015   c3.256-1.166,5.34-2.608,8.18-4.316c-0.302-1.249-1.469-2.227-2.6-2.582C17.376,6.053,11.944,7.566,5.186,5.451   c-0.641,0.778-0.761,3.27-0.682,4.108c3.449-0.076,6.398-0.292,9.195-0.959c0.766,3.862,1.625,5.127,2.797,6.851l0.308,0.455   l-0.447-0.017c-1.59,0-3.029,0.644-4.07,1.686l-0.007,0.007c-0.06-0.099-0.136-0.197-0.23-0.291   c-1.042-1.041-2.481-1.686-4.071-1.686c-1.589,0-3.029,0.645-4.07,1.686c-1.042,1.042-1.686,2.481-1.686,4.071   c0,1.59,0.644,3.029,1.686,4.07c0.72,0.72,1.63,1.25,2.649,1.509c-0.236,0.628-0.367,1.31-0.367,2.02   c0,1.59,0.645,3.029,1.687,4.07c0.739,0.739,1.679,1.279,2.731,1.53c-0.212,0.6-0.327,1.245-0.327,1.917   c0,1.59,0.644,3.029,1.686,4.07c0.78,0.779,1.78,1.337,2.902,1.568c-0.262,0.657-0.407,1.375-0.407,2.125   c0,1.59,0.645,3.03,1.686,4.07C17.188,49.354,18.628,50,20.217,50z" fill-rule="evenodd"/></g><g id="Layer_7"/><g id="Layer_6"/><g id="Layer_5"/><g id="Layer_4"/><g id="Layer_3"/><g id="Layer_2"/></svg>